<?xml version="1.0" standalone="no"?><!DOCTYPE svg PUBLIC "-//W3C//DTD SVG 1.1//EN" "http://www.w3.org/Graphics/SVG/1.1/DTD/svg11.dtd"><svg t="1742451955361" class="icon" viewBox="0 0 1024 1024" version="1.1" xmlns="http://www.w3.org/2000/svg" p-id="3008" xmlns:xlink="http://www.w3.org/1999/xlink" width="64" height="64"><path d="M896 106.667H128A85.333 85.333 0 0 0 42.667 192v640A85.333 85.333 0 0 0 128 917.333h768A85.333 85.333 0 0 0 981.333 832V192A85.333 85.333 0 0 0 896 106.667zM917.333 832A21.333 21.333 0 0 1 896 853.333H128A21.333 21.333 0 0 1 106.667 832V330.667h810.666z m0-565.333H106.667V192A21.333 21.333 0 0 1 128 170.667h768A21.333 21.333 0 0 1 917.333 192z" p-id="3009"></path><path d="M446.72 709.333a32 32 0 0 0 45.227 0L705.28 496a32 32 0 0 0-45.227-45.227l-190.72 190.72-105.386-105.386a32 32 0 0 0-45.227 45.226z" p-id="3010"></path></svg>