<?xml version="1.0" standalone="no"?><!DOCTYPE svg PUBLIC "-//W3C//DTD SVG 1.1//EN" "http://www.w3.org/Graphics/SVG/1.1/DTD/svg11.dtd"><svg t="1742461522119" class="icon" viewBox="0 0 1024 1024" version="1.1" xmlns="http://www.w3.org/2000/svg" p-id="24283" xmlns:xlink="http://www.w3.org/1999/xlink" width="128" height="128"><path d="M512 512a256 256 0 1 0 0-512 256 256 0 0 0 0 512z m0-73.142857a182.857143 182.857143 0 1 1 0-365.714286 182.857143 182.857143 0 0 1 0 365.714286z" fill="#2c2c2c" p-id="24284"></path><path d="M914.285714 852.626286C914.285714 624.128 734.208 438.857143 512 438.857143S109.714286 624.128 109.714286 852.626286s804.571429 228.498286 804.571428 0z m-73.142857 0C841.142857 897.609143 700.416 950.857143 512 950.857143s-329.142857-53.248-329.142857-98.230857C182.857143 664.064 330.678857 512 512 512s329.142857 152.064 329.142857 340.626286z" fill="#2c2c2c" p-id="24285"></path><path d="M460.288 636.854857a73.142857 73.142857 0 0 0 103.424 0l73.142857-73.142857C682.934857 517.632 650.313143 438.857143 585.142857 438.857143H438.857143c-65.097143 0-97.792 78.774857-51.712 124.854857l73.142857 73.142857zM512 585.142857L438.857143 512h146.285714L512 585.142857z" fill="#2c2c2c" p-id="24286"></path><path d="M446.610286 625.590857a73.142857 73.142857 0 0 1 130.779428 0l73.142857 146.285714A73.142857 73.142857 0 0 1 585.142857 877.714286H438.857143a73.142857 73.142857 0 0 1-65.389714-105.837715l73.142857-146.285714zM512 658.285714l-73.142857 146.285715h146.285714L512 658.285714z" fill="#2c2c2c" p-id="24287"></path></svg>