<?xml version="1.0" standalone="no"?><!DOCTYPE svg PUBLIC "-//W3C//DTD SVG 1.1//EN" "http://www.w3.org/Graphics/SVG/1.1/DTD/svg11.dtd"><svg t="1742461561339" class="icon" viewBox="0 0 1116 1024" version="1.1" xmlns="http://www.w3.org/2000/svg" p-id="25591" xmlns:xlink="http://www.w3.org/1999/xlink" width="139.5" height="128"><path d="M216.162734 434.331337C141.815428 434.331337 81.26453 373.908184 81.26453 299.560878s60.423154-134.898204 134.898204-134.898203c74.347305 0 134.770459 60.423154 134.770459 134.898203 0 74.347305-60.423154 134.770459-134.770459 134.770459z m0-177.692614c-23.632735 0-42.922156 19.289421-42.922156 42.922155s19.289421 42.794411 42.922156 42.794411 42.794411-19.289421 42.794411-42.794411-19.161677-42.922156-42.794411-42.922155zM868.681696 434.331337c-74.347305 0-134.770459-60.423154-134.770459-134.770459S794.33439 164.662675 868.681696 164.662675s134.770459 60.423154 134.770459 134.898203C1003.579899 373.908184 943.029001 434.331337 868.681696 434.331337z m0-177.692614c-23.632735 0-42.794411 19.289421-42.794411 42.922155S845.176706 342.355289 868.681696 342.355289s42.794411-19.289421 42.794411-42.794411-19.161677-42.922156-42.794411-42.922155zM46.007045 763.528942c-4.087824 0-8.303393-0.510978-12.391217-1.660679C9.216626 754.97006-5.090759 729.676647 1.6797 705.149701 19.052953 642.810379 49.83938 585.197605 88.162734 542.914172c41.005988-45.221557 87.760479-70.003992 131.576846-70.003992 20.9501 0 41.516966 3.832335 61.061876 11.369261 23.760479 9.06986 35.640719 35.640719 26.443114 59.401198-9.06986 23.760479-35.640719 35.640719-59.401198 26.443113-9.06986-3.449102-18.522954-5.237525-28.231536-5.237524-13.02994 0-36.662675 10.47505-63.361278 39.856287-28.998004 31.936128-52.502994 76.391218-66.043912 125.189621-5.620758 20.311377-24.015968 33.596806-44.199601 33.596806zM1070.13479 763.528942c-20.183633 0-38.578842-13.285429-44.327346-33.596806-13.540918-48.798403-37.045908-93.253493-66.043912-125.189621-26.698603-29.381238-50.203593-39.856287-63.361277-39.856287-12.263473 0.127745-24.654691 2.938124-35.768463 8.431137-22.738523 11.241517-50.331337 1.916168-61.572855-20.822355-11.241517-22.738523-1.916168-50.331337 20.822356-61.572854 23.50499-11.62475 49.948104-17.884232 76.263473-18.011976h0.255489c43.816367 0 90.570858 24.91018 131.576846 70.003992 38.451098 42.283433 69.10978 100.023952 86.483034 162.235529 6.770459 24.526946-7.536926 49.820359-31.936128 56.590818-4.215569 1.277445-8.303393 1.788423-12.391217 1.788423zM545.488083 340.183633c-93.764471 0-170.027944-76.263473-170.027944-170.027944S451.723612 0 545.488083 0s170.027944 76.263473 170.027944 170.027944S639.252554 340.183633 545.488083 340.183633zM545.488083 91.976048c-43.0499 0-78.051896 35.001996-78.051896 78.051896s35.001996 78.051896 78.051896 78.051896 78.051896-35.001996 78.051896-78.051896S588.537983 91.976048 545.488083 91.976048zM579.851356 462.946108l-57.868263 1.405189c-11.62475 0-19.289421 16.734531-14.690619 31.808384l30.914172 100.407185c2.810379 9.06986 8.814371 13.668663 14.690619 13.668663 5.493014 0 11.113772-3.96008 14.051896-11.88024l26.954092-101.812375c5.876248-15.201597-1.788423-33.596806-14.051897-33.596806zM550.853352 632.463074c-5.493014-0.127745-10.347305 3.704591-11.497005 9.197605l-41.005989 182.930139c-0.510978 2.55489-0.255489 5.10978 0.766468 7.536927l41.133732 88.782435c2.682635 5.876248 9.708583 8.431138 15.58483 5.748503 2.682635-1.277445 4.726547-3.321357 5.876248-6.003992l37.684631-87.121757c1.021956-2.171657 1.149701-4.726547 0.766467-7.025948l-37.812376-184.590818c-1.021956-5.493014-5.876248-9.453094-11.497006-9.453094z" p-id="25592"></path><path d="M794.845368 1024c-1.277445 0-2.55489 0-3.832335-0.127745-25.293413-2.043912-44.071856-24.271457-42.027944-49.56487 1.916168-23.760479 2.938124-48.159681 2.938124-72.558882 0-121.48503-24.143713-235.0499-68.087825-319.744511-38.323353-73.964072-87.888224-116.37525-135.920159-116.375249-48.031936 0-97.469062 42.411178-135.792415 116.375249-43.816367 84.694611-68.087824 198.131737-68.087825 319.744511 0 20.311377 0.638723 40.622754 2.043912 60.295409 1.788423 25.293413-17.373253 47.265469-42.794411 49.053892-25.293413 1.788423-47.265469-17.373253-49.053892-42.794411-1.532934-21.716567-2.299401-44.071856-2.299401-66.55489 0-136.047904 27.848303-264.558882 78.307385-362.027944 25.804391-49.820359 56.590818-89.548902 91.209581-117.780439 39.217565-32.063872 81.756487-48.287425 126.339321-48.287425s87.121756 16.223553 126.339322 48.287425c34.618762 28.231537 65.277445 67.832335 91.20958 117.780439 50.586826 97.469062 78.43513 226.107784 78.43513 362.027944 0 26.954092-1.149701 53.908184-3.321357 80.095808-1.788423 24.015968-21.844311 42.155689-45.604791 42.155689z" p-id="25593"></path></svg>