<?xml version="1.0" standalone="no"?><!DOCTYPE svg PUBLIC "-//W3C//DTD SVG 1.1//EN" "http://www.w3.org/Graphics/SVG/1.1/DTD/svg11.dtd"><svg t="1742454908256" class="icon" viewBox="0 0 1026 1024" version="1.1" xmlns="http://www.w3.org/2000/svg" p-id="1624" xmlns:xlink="http://www.w3.org/1999/xlink" width="128.25" height="128"><path d="M1018.829398 768.556309 863.213148 1005.910709C863.149115 1005.990751 863.053066 1006.022767 863.005041 1006.0868 861.852447 1007.815692 861.100059 1009.736683 859.563266 1011.257467 847.060819 1023.759914 826.794368 1023.759914 814.29192 1011.257467L701.097547 898.063094C688.5951 885.560646 688.5951 865.278187 701.097547 852.77574 713.599995 840.273292 733.866446 840.273292 746.368893 852.77574L831.500795 937.907641 968.403394 729.09596C979.289007 715.168778 999.411384 712.719514 1013.338566 723.605128 1027.265748 734.50675 1029.715011 754.629127 1018.829398 768.556309ZM817.061348 803.278214 654.73764 725.97435C634.471189 716.657545 620.495982 697.495664 617.870628 675.32423 615.245274 653.184813 624.337963 631.269512 641.850995 617.486404 710.542418 563.394509 736.155626 445.557742 736.155626 383.989993L736.155626 223.987481C736.155626 155.616223 620.848164 64.032995 512.120094 64.032995 404.336511 64.032995 287.876454 157.088983 287.876454 223.987481L287.876454 383.989993C287.876454 446.50223 318.868436 563.890765 385.382737 617.294305 402.687661 631.173462 411.572243 653.024731 408.850839 675.036082 406.145444 697.047433 392.23427 716.129273 372.079877 725.382044L90.878865 858.074472C83.258936 861.58028 64.145079 869.584408 64.145079 895.037534L64.145079 959.999033 652.128294 959.983025 704.139116 1024.000038 64.097054 1024.000038C28.766835 1024.000038 0.112058 995.361269 0.112058 959.999033L0.112058 863.917485C0.112058 828.427183 64.097054 799.916481 64.097054 799.916481L345.298066 667.224053C255.747886 595.346987 223.843433 453.898043 223.843433 383.989993L223.843433 223.987481C223.843433 118.012832 370.735183-2.6e-05 512.120094-2.6e-05 653.488996-2.6e-05 800.188647 118.012832 800.188647 223.987481L800.188647 383.989993C800.188647 460.845626 770.173169 597.972341 681.471426 667.784342L855.225029 749.170312 817.061348 803.278214Z" p-id="1625"></path></svg>